<svg
  id="logo"
  width="60"
  height="80"
  viewBox="0 0 182 104"
  fill="none"
  xmlns="http://www.w3.org/2000/svg">
  <path d="M19.0454 5.90909V3.40909H16.5454H5.27271H2.77271V5.90909V99V101.5H5.27271H16.5454H19.0454V99V5.90909ZM36.6477 99V101.5H39.1477H50.4204H52.9204V99V67.5H70.7841C78.311 67.5 84.7139 66.1324 89.838 63.2187L89.8487 63.2126C94.8813 60.318 98.667 56.3883 101.114 51.4303C103.544 46.5682 104.739 41.1972 104.739 35.3636C104.739 29.528 103.543 24.1674 101.108 19.3304C98.6259 14.3999 94.8045 10.5165 89.7387 7.68565C84.6133 4.77367 78.1814 3.40909 70.6023 3.40909H39.1477H36.6477V5.90909V99ZM70.4204 52.5H52.9204V18.4091H70.2386C75.0521 18.4091 78.6475 19.2212 81.2082 20.641L81.2165 20.6456L81.2248 20.6501C83.8524 22.081 85.6683 24.0001 86.789 26.4157L86.7934 26.4253L86.7979 26.4348C88.0115 28.9939 88.6477 31.9529 88.6477 35.3636C88.6477 38.7738 88.0117 41.7521 86.7937 44.3468L86.789 44.357C85.6609 46.7885 83.8433 48.7464 81.2279 50.2371C78.7034 51.6761 75.1633 52.5 70.4204 52.5ZM117.898 99V101.5H120.398H131.67H134.17V99V59.8636H172.034H174.534V57.3636V47.3636V44.8636H172.034H134.17V18.4091H176.216H178.716V15.9091V5.90909V3.40909H176.216H120.398H117.898V5.90909V99Z"
  stroke="black"
  stroke-width="5"/>
</svg>
